# AST/ASF file generated using VICON BodyLanguage
# -----------------------------------------------
:version 1.10
:name VICON
:units
  mass 1.0
  length 0.45
  angle deg
:documentation
   .ast/.asf automatically generated from VICON data using
   VICON BodyBuilder and BodyLanguage model FoxedUp or BRILLIANT.MOD
:root
   order TX TY TZ RX RY RZ
   axis XYZ
   position 0 0 0  
   orientation 0 -0 0 
:bonedata
  begin
     id 1 
     name lhipjoint
     direction 0.500677 -0.737119 0.453848 
     length 2.34727 
     axis 0 -0 0  XYZ
  end
  begin
     id 2 
     name lfemur
     direction 0.34202 -0.939693 0  
     length 7.53653  
     axis 0 -0 20  XYZ
    dof rx ry rz
    limits (-160.0 20.0)
           (-70.0 70.0)
           (-60.0 70.0)
  end
  begin
     id 3 
     name ltibia
     direction 0.34202 -0.939693 0   
     length 6.85572   
     axis 0 -0 20   XYZ
    dof rx
    limits (-10.0 170.0)
  end
  begin
     id 4 
     name lfoot
     direction 0.155313 -0.426718 0.890949   
     length 2.18324   
     axis -90 -1.13533e-015 20   XYZ
    dof rx rz
    limits (-45.0 90.0)
           (-70.0 20.0)
  end
  begin
     id 5 
     name ltoes
     direction 1.53474e-011 -4.21647e-011 1   
     length 1.06748   
     axis -90 -1.13533e-015 20   XYZ
    dof rx
    limits (-90.0 20.0)
  end
  begin
     id 6 
     name rhipjoint
     direction -0.632471 -0.659587 0.406111   
     length 2.62319  
     axis 0 -0 0  XYZ 
  end
  begin
     id 7 
     name rfemur
     direction -0.34202 -0.939693 0   
     length 7.21735   
     axis 0 -0 -20   XYZ
    dof rx ry rz
    limits (-160.0 20.0)
           (-70.0 70.0)
           (-70.0 60.0)
  end
  begin
     id 8 
     name rtibia
     direction -0.34202 -0.939693 0   
     length 7.02558   
     axis 0 -0 -20   XYZ
    dof rx
    limits (-10.0 170.0)
 end
 begin
     id 9 
     name rfoot
     direction -0.16057 -0.441164 0.882945   
     length 2.10014  
     axis -90 1.13533e-015 -20   XYZ
    dof rx rz
    limits (-45.0 90.0)
           (-20.0 70.0)
  end
  begin
     id 10 
     name rtoes
     direction -1.53553e-011 -4.2192e-011 1   
     length 1.02554   
     axis -90 1.13533e-015 -20   XYZ
    dof rx
    limits (-90.0 20.0)
  end
  begin
     id 11 
     name lowerback
     direction 0.0401429 0.998861 -0.0258085   
     length 1.80848   
     axis 0 -0 0   XYZ
    dof rx ry rz
    limits (-20.0 45.0)
           (-30.0 30.0)
           (-30.0 30.0)
  end
  begin
     id 12 
     name upperback
     direction -0.0130978 0.999914 -0.000352645   
     length 1.8116   
     axis 0 -0 0   XYZ
    dof rx ry rz
    limits (-20.0 45.0)
           (-30.0 30.0)
           (-30.0 30.0)
  end
  begin
     id 13 
     name thorax
     direction -0.0300198 0.999453 0.0138573   
     length 1.81778   
     axis 0 -0 0   XYZ
    dof rx ry rz
    limits (-20.0 45.0)
           (-30.0 30.0)
           (-30.0 30.0)
  end
  begin
     id 14 
     name lowerneck
     direction -0.0401726 0.999191 -0.00173647   
     length 2.10594   
     axis 0 -0 0   XYZ
    dof rx ry rz
    limits (-20.0 45.0)
           (-30.0 30.0)
           (-30.0 30.0)
  end
  begin
     id 15 
     name upperneck
     direction 0.0119835 0.998501 0.0534085   
     length 2.07325   
     axis 0 -0 0   XYZ
    dof rx ry rz
    limits (-20.0 45.0)
           (-30.0 30.0)
           (-30.0 30.0)
  end
  begin
     id 16
     name head
     direction 0.00628309 0.999826 0.0175921  
     length 2.15096  
     axis 0 -0 0   XYZ
    dof rx ry rz
    limits (-20.0 45.0)
           (-30.0 30.0)
           (-30.0 30.0)
  end
  begin
     id 17 
     name lclavicle
     direction 0.895501 0.429681 -0.115981  
     length 4.18092  
     axis 0 -0 0   XYZ
    dof ry rz
    limits (-20.0 10.0)
           (0.0 20.0)
  end
  begin
     id 18 
     name lhumerus
     direction 1 -4.48961e-011 -3.38433e-028   
     length 5.77237   
     axis 180 -30 -90   XYZ
    dof rx ry rz
    limits (-60.0 90.0)
           (-90.0 90.0)
           (-90.0 90.0)
  end
  begin
     id 19
     name lradius
     direction 1 -4.4901e-011 1.11983e-026   
     length 2.91878   
     axis 180 -30 -90   XYZ
    dof rx
    limits (-10.0 170.0)
  end
  begin
     id 20
     name lwrist
     direction 1 -4.48934e-011 1.88176e-026   
     length 1.45939   
     axis -1.23311e-014 90 90   XYZ
    dof ry
    limits (-180.0 0.0)
 end
  begin
     id 21 
     name lhand
     direction 1 -4.4895e-011 3.76352e-026   
     length 1.06566   
     axis -2.40147e-014 90 90   XYZ
    dof rx rz
    limits (-90.0 90.0)
           (-45.0 45.0)
  end
  begin
     id 22 
     name lfingers
     direction 1 -4.49005e-011 7.52705e-026   
     length 0.859162   
     axis -4.80295e-014 90 90   XYZ
    dof rx
    limits (0.0 90.0)
  end
  begin
     id 23
     name lthumb
     direction 0.707107 -6.34885e-011 0.707107   
     length 1.23359   
     axis -90 45 -9.86935e-015   XYZ
    dof rx rz
    limits (-45.0 45.0)
           (-45.0 45.0)
  end
  begin
     id 24 
     name rclavicle
     direction -0.91006 0.40451 -0.0903492   
     length 4.23293  
     axis 0 -0 0   XYZ 
    dof ry rz
    limits (-10.0 20.0)
           (-20.0 0.0)
  end
  begin
     id 25 
     name rhumerus
     direction -1 -4.4897e-011 1.7415e-027  
     length 5.49854   
     axis 180 30 90   XYZ
    dof rx ry rz
    limits (-90.0 60.0)
           (-90.0 90.0)
           (-90.0 90.0)
  end
  begin
     id 26 
     name rradius
     direction -1 -4.48963e-011 1.21259e-026   
     length 3.1186   
     axis 180 30 90   XYZ
    dof rx
    limits (-10.0 170.0)
  end
  begin
     id 27 
     name rwrist
     direction -1 -4.48967e-011 1.88176e-026   
     length 1.5593   
     axis -1.23311e-014 -90 -90   XYZ
    dof ry
    limits (-180.0 0.0)
  end
  begin
     id 28
     name rhand
     direction -1 -4.4895e-011 3.76352e-026   
     length 0.71207   
     axis -2.40147e-014 -90 -90   XYZ
    dof rx rz
    limits (-90.0 90.0)
           (-45.0 45.0)
  end
  begin
     id 29
     name rfingers
     direction -1 -4.49005e-011 7.52705e-026   
     length 0.574089   
     axis -4.80295e-014 -90 -90   XYZ
    dof rx
    limits (0.0 90.0)
  end
  begin
     id 30
     name rthumb
     direction -0.707107 -6.34982e-011 0.707107   
     length 0.824281   
     axis -90 -45 9.86935e-015   XYZ
    dof rx rz
    limits (-45.0 45.0)
           (-45.0 45.0)
  end
:hierarchy
  begin
    root lhipjoint rhipjoint lowerback
    lhipjoint lfemur
    lfemur ltibia
    ltibia lfoot
    lfoot ltoes
    rhipjoint rfemur
    rfemur rtibia
    rtibia rfoot
    rfoot rtoes
    lowerback upperback
    upperback thorax
    thorax lowerneck lclavicle rclavicle
    lowerneck upperneck
    upperneck head
    lclavicle lhumerus
    lhumerus lradius
    lradius lwrist
    lwrist lhand lthumb
    lhand lfingers
    rclavicle rhumerus
    rhumerus rradius
    rradius rwrist
    rwrist rhand rthumb
    rhand rfingers
  end

#!OML:ASF C:\ViconDB\ViconDB\414\Spring2016\042216\male.ASF
:FULLY-SPECIFIED
:DEGREES
440
root 28.6355 15.7748 2.98237 -368.973 -20.1059 4.98553
lowerback 18.0318 -2.37018 7.10373
upperback 3.45531 -1.90943 -1.28329
thorax -6.63685 -1.09833 -4.97589
lowerneck 5.20294 13.1423 -1.49116
upperneck -18.6688 15.674 -12.8169
head -5.56122 8.68657 -4.67114
rclavicle -1.96797e-014 5.56597e-015
rhumerus -24.6596 -6.84655 -81.2684
rradius 45.9362
rwrist 28.1051
rhand 1.14811 -23.4231
rfingers 7.12502
rthumb 26.6896 -51.5612
lclavicle -1.96797e-014 5.56597e-015
lhumerus -38.4023 33.9109 55.5722
lradius 62.2053
lwrist 13.8781
lhand -31.3342 14.2793
lfingers 7.12502
lthumb -4.60584 44.2093
rfemur -15.9417 -1.67409 37.4422
rtibia 44.4848
rfoot -18.672 -0.345118
rtoes 9.38198
lfemur -73.8167 1.29629 -2.84388
ltibia 99.9525
lfoot -18.0997 14.6998
ltoes -12.7829
441
root 28.6075 15.8273 2.86348 -368.526 -18.3508 4.93005
lowerback 17.3295 -1.74523 6.59167
upperback 3.23822 -1.21191 -1.1473
thorax -6.38291 -0.742413 -4.7068
lowerneck 5.09168 12.9557 -1.68242
upperneck -18.2954 15.4287 -12.8471
head -5.45474 8.57261 -4.61367
rclavicle 8.64713e-014 -3.57812e-014
rhumerus -23.0641 -5.67165 -80.955
rradius 47.661
rwrist 25.4883
rhand 1.22057 -24.2477
rfingers 7.12502
rthumb 26.7589 -52.3752
lclavicle 8.64713e-014 -3.57812e-014
lhumerus -37.1248 34.2836 54.1187
lradius 64.2042
lwrist 14.8792
lhand -31.8351 14.8654
lfingers 7.12502
lthumb -5.08947 44.7843
rfemur -16.5859 -2.80991 37.2973
rtibia 43.4433
rfoot -17.9045 -0.545212
rtoes 9.23251
lfemur -73.428 1.22221 -3.26427
ltibia 101.511
lfoot -17.7443 14.2316
ltoes -13.6453
442
root 28.5745 15.8906 2.74764 -368.105 -16.05 4.78082
lowerback 16.5617 -1.33715 6.23157
upperback 3.1033 -0.77954 -1.11371
thorax -6.05126 -0.51455 -4.56413
lowerneck 4.82287 12.7535 -1.85635
upperneck -17.995 15.1912 -12.7241
head -5.35521 8.44766 -4.50618
rclavicle -2.49475e-014 -2.38542e-015
rhumerus -21.478 -4.5021 -80.3985
rradius 49.6673
rwrist 22.5012
rhand 1.30023 -24.8938
rfingers 7.12502
rthumb 26.8352 -53.0096
lclavicle -2.49475e-014 -2.38542e-015
lhumerus -35.3294 34.2723 52.9289
lradius 66.5345
lwrist 15.9982
lhand -32.357 15.9768
lfingers 7.12502
lthumb -5.59341 45.8829
rfemur -16.9982 -4.31747 37.1831
rtibia 41.9286
rfoot -17.0074 -0.840471
rtoes 8.58745
lfemur -73.0225 0.838261 -3.68781
ltibia 103.163
lfoot -17.9995 13.5414
ltoes -12.9581
443
root 28.5344 15.9713 2.63494 -367.529 -13.6817 4.47342
lowerback 15.6931 -0.991657 6.03529
upperback 2.88379 -0.399834 -1.07321
thorax -5.7655 -0.318759 -4.48782
lowerneck 4.74949 12.658 -1.85198
upperneck -17.7181 15.0876 -12.7595
head -5.25871 8.39345 -4.49058
rclavicle -9.24349e-015 2.3059e-014
rhumerus -20.1285 -3.63565 -79.5196
rradius 52.0442
rwrist 19.764
rhand 1.74408 -26.0842
rfingers 7.12502
rthumb 27.2598 -54.1341
lclavicle -9.24349e-015 2.3059e-014
lhumerus -33.471 34.2723 51.7391
lradius 68.7668
lwrist 17.0775
lhand -32.5822 16.5236
lfingers 7.12502
lthumb -5.81089 46.424
rfemur -17.2967 -5.64304 37.2322
rtibia 39.8206
rfoot -15.7552 -1.17134
rtoes 8.73001
lfemur -72.4344 0.331358 -4.05434
ltibia 104.773
lfoot -17.7983 13.6156
ltoes -12.3403
444
root 28.481 16.0905 2.53682 -367.096 -11.3797 4.2406
lowerback 14.6619 -0.653306 5.64046
upperback 2.73861 -0.0639133 -0.943597
thorax -5.31666 -0.133623 -4.1849
lowerneck 4.48253 12.5126 -2.17316
upperneck -17.3714 14.9099 -12.6778
head -5.1509 8.30621 -4.37638
rclavicle -1.96797e-014 -1.82882e-014
rhumerus -18.9199 -3.0819 -78.0955
rradius 54.4908
rwrist 17.6013
rhand 2.23278 -26.6651
rfingers 7.12502
rthumb 27.7272 -54.6406
lclavicle -1.96797e-014 -1.82882e-014
lhumerus -31.7643 34.2174 50.6423
lradius 71.2579
lwrist 17.994
lhand -32.5227 17.3501
lfingers 7.12502
lthumb -5.7534 47.252
rfemur -16.9759 -7.19139 37.1785
rtibia 37.0978
rfoot -14.3525 -1.24443
rtoes 8.30161
lfemur -71.2045 -0.304972 -4.44118
ltibia 106.23
lfoot -17.6609 14.3956
ltoes -11.9494
